<svg version="1.1" xmlns="http://www.w3.org/2000/svg" viewBox="0 0 473.8872710246087 222.62500000000045" width="473.8872710246087" height="222.62500000000045"><!-- svg-source:excalidraw --><metadata></metadata><defs><style class="style-fonts">
      </style></defs><g stroke-linecap="round"><g transform="translate(10 46.56801470588289) rotate(0 71.98529411764684 82.61948529411757)" fill-rule="evenodd"><path d="M0 0 L143.97 -0.82 L133.34 146.83 L72.8 166.06 L10.63 148.06 L0 0" stroke="none" stroke-width="0" fill="#e44d26" fill-rule="evenodd"></path><path d="M0 0 C36.34 -0.21, 72.68 -0.41, 143.97 -0.82 M0 0 C42.37 -0.24, 84.74 -0.48, 143.97 -0.82 M143.97 -0.82 C141.29 36.44, 138.6 73.7, 133.34 146.83 M143.97 -0.82 C141.54 32.97, 139.1 66.77, 133.34 146.83 M133.34 146.83 C109.63 154.36, 85.93 161.89, 72.8 166.06 M133.34 146.83 C112.46 153.46, 91.58 160.09, 72.8 166.06 M72.8 166.06 C55.11 160.94, 37.42 155.81, 10.63 148.06 M72.8 166.06 C53.29 160.41, 33.77 154.76, 10.63 148.06 M10.63 148.06 C7.35 102.32, 4.06 56.59, 0 0 M10.63 148.06 C8.38 116.7, 6.13 85.35, 0 0 M0 0 C0 0, 0 0, 0 0 M0 0 C0 0, 0 0, 0 0" stroke="#e44d26" stroke-width="1" fill="none"></path></g></g><mask></mask><g stroke-linecap="round"><g transform="translate(79.94025735294053 58.83823529411802) rotate(0 31.2890625 67.28170955882354)" fill-rule="evenodd"><path d="M0 0 L4.09 135.79 L55.22 121.48 L62.58 -1.23 L0 0" stroke="none" stroke-width="0" fill="#f16529" fill-rule="evenodd"></path><path d="M0 0 C1.12 37.31, 2.25 74.63, 4.09 135.79 M0 0 C1.04 34.51, 2.08 69.02, 4.09 135.79 M4.09 135.79 C23.19 130.44, 42.3 125.09, 55.22 121.48 M4.09 135.79 C19.79 131.39, 35.49 127, 55.22 121.48 M55.22 121.48 C57.76 79.09, 60.3 36.71, 62.58 -1.23 M55.22 121.48 C57.69 80.2, 60.17 38.93, 62.58 -1.23 M62.58 -1.23 C39.3 -0.77, 16.03 -0.31, 0 0 M62.58 -1.23 C42.54 -0.83, 22.51 -0.44, 0 0 M0 0 C0 0, 0 0, 0 0 M0 0 C0 0, 0 0, 0 0" stroke="#f16529" stroke-width="1" fill="none"></path></g></g><mask></mask><g stroke-opacity="0.6" fill-opacity="0.6" transform="translate(49.375 11.000000000000455) rotate(0 38 16)"><text x="0" y="23.560546875" font-family="Helvetica, Segoe UI Emoji" font-size="28px" fill="#000000" text-anchor="start" style="white-space: pre;" direction="ltr" dominant-baseline="alphabetic">HTML</text></g><g stroke-linecap="round"><g stroke-opacity="0.6" fill-opacity="0.6" transform="translate(116.33946078431472 63.70833333333394) rotate(0 -33 53.666666666666515)" fill-rule="evenodd"><path d="M-0.56 -1.43 L-0.04 18.04 L-43.07 13.46 L-43.95 35.91 L1.32 38.28 L1.75 93.53 L-30.05 106.45 L-60.51 96.3 L-68.48 68.87 L-51.26 67.81 L-49.6 81.79 L-31.4 94.09 L-11.04 77.58 L-14.77 52.38 L-67.71 49.78 L-63.56 0.7 L0.76 0.75" stroke="none" stroke-width="0" fill="#fff" fill-rule="evenodd"></path><path d="M0 0 C-1.56 3.6, -1.53 7.92, -2 16.67 M0 0 C-0.29 5.98, -0.83 12.02, -2 16.67 M-2 16.67 C-14.65 15.02, -25.19 15.61, -44 14.67 M-2 16.67 C-18.11 16.85, -32.59 14.49, -44 14.67 M-44 14.67 C-45.12 21.37, -44.1 25.81, -45.33 34 M-44 14.67 C-44.98 21.95, -44.2 28.99, -45.33 34 M-45.33 34 C-31.59 35.52, -20.89 36.05, 0.67 38.67 M-45.33 34 C-26.18 36.06, -9.32 37.3, 0.67 38.67 M0.67 38.67 C1.23 53.86, 0.48 73.84, 0 95.33 M0.67 38.67 C0.04 54.7, -0.34 68.49, 0 95.33 M0 95.33 C-9.93 98.61, -16.6 102.72, -30.67 107.33 M0 95.33 C-6.9 97.92, -12.81 100.99, -30.67 107.33 M-30.67 107.33 C-37.76 106.2, -47.45 103.71, -60 97.67 M-30.67 107.33 C-37.49 104.79, -45.95 102.54, -60 97.67 M-60 97.67 C-62.64 88.23, -63.16 75.71, -66.67 67.33 M-60 97.67 C-61.59 90.22, -62.63 82.9, -66.67 67.33 M-66.67 67.33 C-62.52 66.97, -58.7 68.36, -50.67 67 M-66.67 67.33 C-62.23 66.76, -59.32 67.4, -50.67 67 M-50.67 67 C-51.93 69.72, -49.88 73.52, -49.67 82.5 M-50.67 67 C-51.12 72.22, -50.33 77.51, -49.67 82.5 M-49.67 82.5 C-46.51 84.16, -41.49 86.48, -32 92.67 M-49.67 82.5 C-45.51 85.81, -41.3 87.41, -32 92.67 M-32 92.67 C-26.14 91.11, -21.41 87.61, -11.33 78.67 M-32 92.67 C-27.96 89.45, -22.63 86.14, -11.33 78.67 M-11.33 78.67 C-11.15 70.92, -13.82 61.26, -13.33 54 M-11.33 78.67 C-12.06 73.83, -12.16 68.97, -13.33 54 M-13.33 54 C-28.46 54.91, -46.36 52.57, -66 50.67 M-13.33 54 C-30.92 52.68, -46.92 51.88, -66 50.67 M-66 50.67 C-64.62 39.38, -66.29 25.51, -62.67 0 M-66 50.67 C-64.66 32.49, -63.34 14.42, -62.67 0 M-62.67 0 C-45.36 1.61, -24.78 -0.03, 0 0 M-62.67 0 C-45.63 0.57, -28.01 0.59, 0 0 M0 0 C0 0, 0 0, 0 0 M0 0 C0 0, 0 0, 0 0" stroke="#0000" stroke-width="1" fill="none"></path></g></g><mask></mask><g stroke-linecap="round"><g transform="translate(319.916682789315 45.07429335512461) rotate(0 71.98529411764684 82.61948529411757)" fill-rule="evenodd"><path d="M0 0 L143.97 -0.82 L133.34 146.83 L72.8 166.06 L10.63 148.06 L0 0" stroke="none" stroke-width="0" fill="#e7c62f" fill-rule="evenodd"></path><path d="M0 0 C54.07 -0.31, 108.14 -0.61, 143.97 -0.82 M0 0 C50.17 -0.29, 100.33 -0.57, 143.97 -0.82 M143.97 -0.82 C139.97 54.79, 135.96 110.4, 133.34 146.83 M143.97 -0.82 C141.08 39.34, 138.19 79.51, 133.34 146.83 M133.34 146.83 C115.17 152.6, 96.99 158.37, 72.8 166.06 M133.34 146.83 C111.26 153.84, 89.19 160.85, 72.8 166.06 M72.8 166.06 C56.56 161.36, 40.32 156.65, 10.63 148.06 M72.8 166.06 C58.01 161.77, 43.21 157.49, 10.63 148.06 M10.63 148.06 C8.44 117.45, 6.24 86.84, 0 0 M10.63 148.06 C7.03 97.86, 3.42 47.65, 0 0 M0 0 C0 0, 0 0, 0 0 M0 0 C0 0, 0 0, 0 0" stroke="#e7c62f" stroke-width="1" fill="none"></path></g></g><mask></mask><g stroke-linecap="round"><g transform="translate(389.85694014225555 57.34451394335974) rotate(0 31.2890625 67.28170955882354)" fill-rule="evenodd"><path d="M0 0 L4.09 135.79 L55.22 121.48 L62.58 -1.23 L0 0" stroke="none" stroke-width="0" fill="#fedd25" fill-rule="evenodd"></path><path d="M0 0 C1.63 54.16, 3.26 108.32, 4.09 135.79 M0 0 C1.15 38.3, 2.31 76.6, 4.09 135.79 M4.09 135.79 C23.41 130.38, 42.73 124.97, 55.22 121.48 M4.09 135.79 C19.55 131.46, 35.02 127.13, 55.22 121.48 M55.22 121.48 C57.83 77.95, 60.44 34.43, 62.58 -1.23 M55.22 121.48 C57.42 84.81, 59.62 48.14, 62.58 -1.23 M62.58 -1.23 C44.12 -0.87, 25.65 -0.5, 0 0 M62.58 -1.23 C45.38 -0.89, 28.18 -0.55, 0 0 M0 0 C0 0, 0 0, 0 0 M0 0 C0 0, 0 0, 0 0" stroke="#fedd25" stroke-width="1" fill="none"></path></g></g><mask></mask><g stroke-opacity="0.6" fill-opacity="0.6" transform="translate(368.291682789315 10.506278649242176) rotate(0 16.5 16)"><text x="0" y="23.560546875" font-family="Helvetica, Segoe UI Emoji" font-size="28px" fill="#000000" text-anchor="start" style="white-space: pre;" direction="ltr" dominant-baseline="alphabetic">JS</text></g><g stroke-linecap="round"><g stroke-opacity="0.5" fill-opacity="0.5" transform="translate(363.90197690696186 70.31877864924218) rotate(0 -4.5 52)" fill-rule="evenodd"><path d="M0 0 L17 0 L17 104 L-26 95 L-26 76 L2 83 L0 0" stroke="none" stroke-width="0" fill="#fff" fill-rule="evenodd"></path><path d="M0 0 C5 0, 10.01 0, 17 0 M0 0 C4.29 0, 8.58 0, 17 0 M17 0 C17 23.8, 17 47.6, 17 104 M17 0 C17 40.72, 17 81.45, 17 104 M17 104 C2.17 100.9, -12.66 97.79, -26 95 M17 104 C4.76 101.44, -7.47 98.88, -26 95 M-26 95 C-26 89.04, -26 83.07, -26 76 M-26 95 C-26 89.13, -26 83.26, -26 76 M-26 76 C-20.07 77.48, -14.14 78.96, 2 83 M-26 76 C-14.92 78.77, -3.85 81.54, 2 83 M2 83 C1.44 59.94, 0.89 36.88, 0 0 M2 83 C1.36 56.44, 0.72 29.89, 0 0 M0 0 C0 0, 0 0, 0 0 M0 0 C0 0, 0 0, 0 0" stroke="#0000" stroke-width="1" fill="none"></path></g></g><mask></mask><g stroke-linecap="round"><g stroke-opacity="0.6" fill-opacity="0.6" transform="translate(443.90197690696186 74.31877864924218) rotate(0 -24 48)" fill-rule="evenodd"><path d="M0 0 L-48 0 L-46.77 54.13 L-20.31 51.06 L-22.15 70.47 L-46.15 78.64 L-44.77 96 L-9.23 89.87 L-3.69 34.72 L-33.85 33.7 L-33.23 17.36 L-2.46 16.34 L0 0" stroke="none" stroke-width="0" fill="#fff" fill-rule="evenodd"></path><path d="M0 0 C-12.2 0, -24.4 0, -48 0 M0 0 C-17.94 0, -35.87 0, -48 0 M-48 0 C-47.62 16.62, -47.24 33.24, -46.77 54.13 M-48 0 C-47.57 18.7, -47.15 37.39, -46.77 54.13 M-46.77 54.13 C-37.87 53.1, -28.97 52.07, -20.31 51.06 M-46.77 54.13 C-36.93 52.99, -27.08 51.85, -20.31 51.06 M-20.31 51.06 C-20.9 57.28, -21.49 63.49, -22.15 70.47 M-20.31 51.06 C-20.76 55.77, -21.2 60.47, -22.15 70.47 M-22.15 70.47 C-30.25 73.22, -38.34 75.98, -46.15 78.64 M-22.15 70.47 C-27.26 72.2, -32.36 73.94, -46.15 78.64 M-46.15 78.64 C-45.66 84.84, -45.17 91.04, -44.77 96 M-46.15 78.64 C-45.65 84.97, -45.14 91.3, -44.77 96 M-44.77 96 C-32.99 93.97, -21.21 91.94, -9.23 89.87 M-44.77 96 C-35.33 94.37, -25.89 92.75, -9.23 89.87 M-9.23 89.87 C-7.1 68.69, -4.98 47.51, -3.69 34.72 M-9.23 89.87 C-7.41 71.78, -5.6 53.7, -3.69 34.72 M-3.69 34.72 C-12.8 34.42, -21.9 34.11, -33.85 33.7 M-3.69 34.72 C-11.78 34.45, -19.86 34.18, -33.85 33.7 M-33.85 33.7 C-33.65 28.39, -33.45 23.07, -33.23 17.36 M-33.85 33.7 C-33.68 29.36, -33.52 25.01, -33.23 17.36 M-33.23 17.36 C-25.87 17.12, -18.51 16.87, -2.46 16.34 M-33.23 17.36 C-26.32 17.13, -19.41 16.9, -2.46 16.34 M-2.46 16.34 C-1.57 10.41, -0.68 4.48, 0 0 M-2.46 16.34 C-1.65 10.96, -0.84 5.59, 0 0 M0 0 C0 0, 0 0, 0 0 M0 0 C0 0, 0 0, 0 0" stroke="#0000" stroke-width="1" fill="none"></path></g></g><mask></mask><g stroke-linecap="round"><g transform="translate(166.84761764765608 45.56801470588243) rotate(0 71.98529411764684 82.61948529411757)" fill-rule="evenodd"><path d="M0 0 L143.97 -0.82 L133.34 146.83 L72.8 166.06 L10.63 148.06 L0 0" stroke="none" stroke-width="0" fill="#007cc3" fill-rule="evenodd"></path><path d="M0 0 C30.78 -0.17, 61.55 -0.35, 143.97 -0.82 M0 0 C37.02 -0.21, 74.05 -0.42, 143.97 -0.82 M143.97 -0.82 C140.44 48.21, 136.91 97.23, 133.34 146.83 M143.97 -0.82 C141.41 34.76, 138.85 70.34, 133.34 146.83 M133.34 146.83 C120.32 150.97, 107.3 155.1, 72.8 166.06 M133.34 146.83 C119.57 151.21, 105.8 155.58, 72.8 166.06 M72.8 166.06 C50.4 159.57, 27.99 153.08, 10.63 148.06 M72.8 166.06 C58.68 161.97, 44.56 157.88, 10.63 148.06 M10.63 148.06 C8.14 113.3, 5.64 78.53, 0 0 M10.63 148.06 C6.93 96.46, 3.22 44.87, 0 0 M0 0 C0 0, 0 0, 0 0 M0 0 C0 0, 0 0, 0 0" stroke="#007cc3" stroke-width="1" fill="none"></path></g></g><mask></mask><g stroke-linecap="round"><g transform="translate(236.7878750005966 57.83823529411757) rotate(0 31.2890625 67.28170955882354)" fill-rule="evenodd"><path d="M0 0 L4.09 135.79 L55.22 121.48 L62.58 -1.23 L0 0" stroke="none" stroke-width="0" fill="#008dd2" fill-rule="evenodd"></path><path d="M0 0 C0.96 31.91, 1.92 63.81, 4.09 135.79 M0 0 C0.86 28.53, 1.72 57.07, 4.09 135.79 M4.09 135.79 C15.7 132.54, 27.31 129.29, 55.22 121.48 M4.09 135.79 C14.71 132.82, 25.33 129.84, 55.22 121.48 M55.22 121.48 C57.66 80.8, 60.1 40.13, 62.58 -1.23 M55.22 121.48 C57.66 80.81, 60.1 40.14, 62.58 -1.23 M62.58 -1.23 C50.05 -0.98, 37.52 -0.74, 0 0 M62.58 -1.23 C48.98 -0.96, 35.38 -0.69, 0 0 M0 0 C0 0, 0 0, 0 0 M0 0 C0 0, 0 0, 0 0" stroke="#008dd2" stroke-width="1" fill="none"></path></g></g><mask></mask><g stroke-opacity="0.6" fill-opacity="0.6" transform="translate(206.22261764765608 10) rotate(0 29 16)"><text x="0" y="23.560546875" font-family="Helvetica, Segoe UI Emoji" font-size="28px" fill="#000000" text-anchor="start" style="white-space: pre;" direction="ltr" dominant-baseline="alphabetic">CSS</text></g><g stroke-linecap="round"><g stroke-opacity="0.6" fill-opacity="0.6" transform="translate(201.0228605305074 73.49331435472732) rotate(0 36.05038939904625 52.58333333333337)" fill-rule="evenodd"><path d="M0 0 L78.69 0 L78.69 16.87 L41.71 34.72 L78.69 33.73 L75.36 89.93 L40.8 105.17 L2.91 91.28 L-0.97 66.47 L12.63 66.47 L17.49 83.34 L41.36 91.13 L59.96 81.92 L59.26 54.57 L-1.94 53.58 L-2.91 38.69 L42.89 18.92 L-1.94 18.85 L-6.59 0" stroke="none" stroke-width="0" fill="#fff" fill-rule="evenodd"></path><path d="M0 0 C28.83 0, 57.66 0, 78.69 0 M0 0 C19.15 0, 38.3 0, 78.69 0 M78.69 0 C78.69 3.93, 78.69 7.86, 78.69 16.87 M78.69 0 C78.69 6.16, 78.69 12.32, 78.69 16.87 M78.69 16.87 C67.37 22.33, 56.05 27.8, 41.71 34.72 M78.69 16.87 C70.86 20.65, 63.03 24.43, 41.71 34.72 M41.71 34.72 C55.8 34.35, 69.9 33.97, 78.69 33.73 M41.71 34.72 C54.85 34.37, 67.98 34.02, 78.69 33.73 M78.69 33.73 C77.63 51.73, 76.56 69.72, 75.36 89.93 M78.69 33.73 C77.83 48.31, 76.97 62.88, 75.36 89.93 M75.36 89.93 C68.05 93.15, 60.75 96.37, 40.8 105.17 M75.36 89.93 C62.6 95.56, 49.84 101.18, 40.8 105.17 M40.8 105.17 C32.14 101.99, 23.48 98.82, 2.91 91.28 M40.8 105.17 C29.34 100.96, 17.88 96.76, 2.91 91.28 M2.91 91.28 C1.4 81.6, -0.12 71.92, -0.97 66.47 M2.91 91.28 C1.59 82.85, 0.27 74.42, -0.97 66.47 M-0.97 66.47 C2 66.47, 4.98 66.47, 12.63 66.47 M-0.97 66.47 C1.96 66.47, 4.89 66.47, 12.63 66.47 M12.63 66.47 C14.09 71.54, 15.55 76.61, 17.49 83.34 M12.63 66.47 C13.64 69.98, 14.65 73.48, 17.49 83.34 M17.49 83.34 C25.72 86.03, 33.94 88.71, 41.36 91.13 M17.49 83.34 C25.37 85.91, 33.25 88.49, 41.36 91.13 M41.36 91.13 C47.73 87.98, 54.11 84.82, 59.96 81.92 M41.36 91.13 C45.47 89.1, 49.59 87.06, 59.96 81.92 M59.96 81.92 C59.8 75.68, 59.64 69.44, 59.26 54.57 M59.96 81.92 C59.72 72.73, 59.49 63.53, 59.26 54.57 M59.26 54.57 C44.89 54.33, 30.51 54.1, -1.94 53.58 M59.26 54.57 C44.78 54.33, 30.31 54.1, -1.94 53.58 M-1.94 53.58 C-2.29 48.25, -2.64 42.92, -2.91 38.69 M-1.94 53.58 C-2.31 47.9, -2.68 42.23, -2.91 38.69 M-2.91 38.69 C11.35 32.53, 25.62 26.37, 42.89 18.92 M-2.91 38.69 C7.05 34.39, 17.02 30.09, 42.89 18.92 M42.89 18.92 C25.41 18.89, 7.94 18.87, -1.94 18.85 M42.89 18.92 C26.26 18.9, 9.63 18.87, -1.94 18.85 M-1.94 18.85 C-2.99 14.61, -4.03 10.38, -6.59 0 M-1.94 18.85 C-3.51 12.51, -5.07 6.18, -6.59 0 M-6.59 0 C-4.96 0, -3.34 0, 0 0 M-6.59 0 C-4.82 0, -3.06 0, 0 0" stroke="#0000" stroke-width="1" fill="none"></path></g></g><mask></mask></svg>